<svg xmlns="http://www.w3.org/2000/svg" viewBox="282 266 213 91">
  <defs>
    <linearGradient id="gold" x1="0" y1="0" x2="1" y2="1">
      <stop offset="0%" stop-color="#BF953F"/>
      <stop offset="25%" stop-color="#FCF6BA"/>
      <stop offset="50%" stop-color="#B38728"/>
      <stop offset="75%" stop-color="#FBF5B7"/>
      <stop offset="100%" stop-color="#AA771C"/>
    </linearGradient>
  </defs>
  <g transform="matrix(0.6536755,0,0,0.6536755,256.68733,203.41589)">
    <path
      fill="url(#gold)"
      transform="matrix(0.8012048,0,0,0.8012048,0,-0.5)"
      d="M 181.28125,138.9375 C 172.0805,139.15948 162.90339,141.72259 154.21875,144.625 C 135.70318,151.39339 116.33225,155.75019 98.21875,163.625 C 90.183086,167.94048 81.701432,171.27485 73.4375,175.125 C 70.84646,176.22053 69.211428,178.60669 67.4375,180.65625 C 75.410503,185.40366 85.181768,184.93647 93.90625,182.875 C 99.696969,186.37927 107.63435,185.51283 109.34375,185.25 C 109.05543,185.29987 108.67025,185.38159 107.96875,185.53125 C 113.64914,187.0451 119.49443,185.5181 125.1875,184.90625 C 125.85091,187.02135 125.33768,190.37377 128.0625,191.0625 C 132.08728,192.68204 136.45933,191.81306 140.65625,191.6875 C 141.28636,193.6899 141.94374,195.6963 142.625,197.6875 C 146.04119,198.71148 150.35279,198.30064 152.65625,201.5 C 155.35714,205.09957 159.89533,206.06778 164.03125,207.03125 C 162.54922,208.97151 161.06779,210.94375 159.65625,212.9375 C 163.02013,214.93813 166.67806,216.37324 170.46875,217.34375 C 170.75196,220.42491 169.10041,224.78977 172.46875,226.625 C 176.33628,228.85959 178.77117,223.70574 181.03125,221.4375 C 181.5154,224.3183 182.08709,227.16481 182.8125,230 C 185.01201,230.25843 187.19291,230.46403 189.40625,230.625 C 189.60485,233.54454 189.91704,236.46681 190.28125,239.375 C 192.60474,238.79963 194.92065,238.1469 197.21875,237.46875 C 197.5094,241.0009 195.14345,245.96632 198.75,248.3125 C 201.95009,247.0592 204.78297,245.06137 207.40625,242.875 C 208.57645,244.67849 209.74105,246.48774 210.9375,248.28125 C 212.44765,246.70362 213.94448,245.12581 215.46875,243.5625 C 216.91677,245.19789 218.28601,246.9231 219.9375,248.375 C 221.84141,246.91686 223.52372,245.18639 225.28125,243.5625 C 225.56345,253.60341 223.1309,263.50814 220.3125,273.0625 C 219.75084,273.80866 219.13907,274.51785 218.5,275.1875 L 247.62014,275.1875 L 253.96389,270.45562 L 259.24514,275.1875 L 288.15625,275.1875 C 287.36542,274.79722 286.57787,274.42232 285.78125,274.0625 C 286.76224,268.75681 285.00845,263.22152 280,260.6875 C 281.34248,256.6029 281.07019,252.30694 280.78125,248.09375 C 282.79271,248.3253 284.80263,248.77857 286.84375,248.5625 C 288.11815,246.86089 288.87403,244.85205 289.75,242.9375 C 291.80809,243.29605 293.86672,243.64751 295.9375,243.96875 C 296.92123,242.36625 297.89981,240.76259 298.875,239.15625 C 300.57881,240.63607 302.27495,242.12723 304,243.59375 C 307.81084,241.28478 308.32676,237.1675 307.8125,233.09375 C 309.42383,233.53904 311.03379,233.96442 312.65625,234.40625 C 314.38672,229.85924 314.37876,225.00164 314.125,220.21875 C 316.87823,221.63964 319.60118,223.13934 322.375,224.53125 C 322.14957,220.89131 321.8413,217.25712 321.5625,213.625 C 324.32305,213.81827 327.10026,213.95155 329.875,214 C 330.40308,212.04258 330.87251,210.0863 331.375,208.125 C 333.61719,208.26386 335.90469,208.68322 338.15625,208.375 C 340.87745,207.24389 342.73171,204.95035 344.125,202.4375 C 348.00814,202.49562 351.9049,202.02016 355.53125,200.5625 C 354.92299,198.48152 354.28285,196.41245 353.65625,194.34375 C 360.01382,197.00604 366.35882,199.66874 372.5,202.8125 C 375.95936,204.95318 379.8967,203.17659 383.59375,203.15625 C 386.08257,203.65481 388.4316,204.74912 390.96875,205.0625 C 392.83861,204.28809 394.4788,203.07165 396.1875,202 C 403.36472,204.54889 410.51223,208.63414 418.40625,207.5 C 424.44748,206.21196 429.82563,212.21999 435.84375,208.90625 C 436.09633,207.9634 436.59115,206.06781 436.84375,205.125 C 428.13253,194.08719 416.70061,185.72488 405.6875,177.15625 C 395.88258,169.64174 384.72395,164.17272 374.75,156.90625 C 370.53604,153.83519 365.78333,151.62846 361.21875,149.15625 C 351.84705,143.53836 341.17388,139.3105 330.125,139.25 C 317.31312,141.87082 306.62503,150.21042 297.125,158.78125 C 293.15558,162.43052 290.7677,167.49407 289.8125,172.75 C 289.12936,178.47983 284.02564,182.58864 278.75,184.09375 C 271.49384,176.18412 268.46565,164.86617 259.59375,158.25 C 254.42434,157.82936 248.96362,157.60379 244,159.3125 C 239.25731,162.07025 236.34571,167.16489 234.03125,171.96875 C 232.00424,175.94428 235.47655,179.35174 237.875,182.125 C 239.96964,180.74306 242.06839,179.35644 244.3125,178.21875 C 242.87191,181.28038 240.55622,184.19057 237.03125,184.8125 C 231.159,186.97513 225.2637,183.98599 220.15625,181.28125 C 218.85325,178.85294 219.00388,175.9683 218.59375,173.3125 C 221.21437,171.43112 223.84438,169.60866 226.4375,167.6875 C 225.41243,160.87582 221.16825,154.89452 214.9375,151.875 C 207.46286,148.19045 199.88106,144.64267 192.90625,140.0625 C 189.65577,139.32124 186.39658,138.97208 183.125,138.9375 C 182.51158,138.93102 181.89463,138.9227 181.28125,138.9375 z"/>
  </g>
</svg>